<?xml version="1.0" encoding="UTF-8"?>
<svg id="Layer_1" data-name="Layer 1" xmlns="http://www.w3.org/2000/svg" version="1.1" viewBox="0 0 167.1 198.5">
  <defs>
    <style>
      .cls-1, .cls-2, .cls-3, .cls-4, .cls-5, .cls-6, .cls-7, .cls-8, .cls-9, .cls-10, .cls-11, .cls-12, .cls-13, .cls-14, .cls-15, .cls-16, .cls-17, .cls-18, .cls-19, .cls-20, .cls-21, .cls-22, .cls-23, .cls-24, .cls-25, .cls-26, .cls-27, .cls-28, .cls-29, .cls-30, .cls-31, .cls-32, .cls-33, .cls-34 {
        stroke-width: 0px;
      }

      .cls-1, .cls-4 {
        fill: #000;
      }

      .cls-1, .cls-20 {
        opacity: .6;
      }

      .cls-2 {
        fill: #ab4825;
      }

      .cls-3 {
        fill: #a7cdec;
      }

      .cls-5, .cls-20, .cls-30 {
        fill: #f37b29;
      }

      .cls-6 {
        fill: #b63a26;
      }

      .cls-7 {
        fill: #fab365;
      }

      .cls-8 {
        fill: #ec2024;
      }

      .cls-9 {
        fill: #671f0e;
      }

      .cls-10 {
        fill: #80b3d4;
      }

      .cls-11 {
        fill: #af000d;
      }

      .cls-12 {
        fill: #dd5090;
      }

      .cls-13 {
        fill: #fcd600;
      }

      .cls-14 {
        fill: #600500;
      }

      .cls-15 {
        fill: #cbe6f8;
      }

      .cls-16 {
        fill: #e3b423;
      }

      .cls-17 {
        fill: #fbbd56;
      }

      .cls-18 {
        fill: #811618;
      }

      .cls-19 {
        fill: #cfecf4;
      }

      .cls-21 {
        fill: #ef984c;
      }

      .cls-22 {
        fill: #85301b;
      }

      .cls-23 {
        fill: #f27448;
      }

      .cls-35 {
        opacity: 0;
      }

      .cls-24 {
        fill: #b9355d;
      }

      .cls-25 {
        fill: #608ea8;
      }

      .cls-26 {
        fill: #3a3a3a;
      }

      .cls-27 {
        fill: #f69147;
      }

      .cls-28 {
        fill: #fff;
      }

      .cls-29 {
        fill: #17bcc6;
      }

      .cls-30 {
        opacity: .8;
      }

      .cls-31 {
        fill: #fcc68f;
      }

      .cls-32 {
        fill: #ee3f3f;
      }

      .cls-33 {
        fill: #e47528;
      }

      .cls-34 {
        fill: #ed3625;
      }
    </style>
  </defs>
  <g>
    <path class="cls-34" d="M150.8,83.8s8.7-27.2-3.2-35.8c-8.1-5.9-29.5-6-64.6-5.9-31.5,0-52-1.2-59.1,3.9-7.1,5.1-11.4,11.8-11,20.1.4,8.3,3.9,21.7,3.9,21.7,0,0-6.3-6.3-11.4-3.2-5.1,3.2-3.2,12.6,1.6,26.8,4.7,14.2,5.5,15.8,5.5,15.8,0,0-2.8-.4-2.4,4.3.4,4.7,3.2,18.1,15.8,20.9,12.6,2.8,39.4,4.3,62.2,3.5,22.8-.8,46.4-1.3,54-3.5,11.8-3.5,17.7-18.1,17.7-21.3s-3.5-3.9-3.5-3.9c0,0,3.2-13.8,4.3-20.9,1.2-7.1,6.7-16.1,1.2-20.9-5.5-4.7-11-1.6-11-1.6Z"/>
    <path class="cls-14" d="M59.8,83.8c.3-.8.6-1.5,1-2.2-.5-.1-1.1-.3-1.6-.4.2.9.4,1.8.6,2.6Z"/>
    <path class="cls-11" d="M152.2,143.8c-1.6.2-3.4.3-5.2.2-1.1,0-2.3,0-3.4,0-1.9,0-3.6-.3-5.2-.8,0,0,0,0,0,0-7.7-.2-11.3-5.5-12.9-12.1-.4-1.5-.1-2.9.2-4.1.9-3.8,24.6-2.7,30.8.1,0-.1.7-3.2.7-3.3-1.5-.8-2.9-1.7-4-2.8-.5-.5-1-1-1.5-1.6,0-.1-.2-.2-.3-.4,0-.1-.2-.3-.3-.4-7.1-10-3.1-27.5.9-39.2,1.7-7,3.9-21-1.5-28.7-14.9,23-49.7,17.5-72.9,15.2-18.9-1.9-49,4.8-59.6-14.5-3.4,4.1-5.3,9-5,14.5.4,8.3,3.9,21.7,3.9,21.7,0,0,0,0,0,0,4.3,12,7,27.8.7,33.4-1.1,2.2-3,3.4-6,3.3.3.9.6,1.5.7,1.9.6-.3,1.3-.6,1.9-.8.6-.3,1.2-.5,1.8-.6.8-.3,1.7-.5,2.4-.7,1.2-.4,2.5-.7,3.8-.8.6-.1,1.1-.3,1.7-.4,2.9-.7,6.2-1,9,0,3.1.5,5.6,3.4,5.1,6.7-.6,4.3,1.9,10-2.6,13.7-5.7,4.7-16-1.8-22.5-2.5,1.3,5.7,9.2,26.6,23.5,31.9,12.1,4.5,90.2,4.3,96.7-.3,13.1-9.5,17.1-18.8,20.8-28.3-.1,0-.2,0-.3,0-.2,0-.8,0-1.2-.1ZM79.7,137.7c0,3-1.8,5-4.2,6-2.1,1.5-4.8,2.1-7.6,2.2-4.6.8-9.7.4-13.8-1.5-9.3-4.4-7.6-16.6,1.5-20.2,3.5-1.4,7.8-1.4,11.6-.4,2.1,0,4.2.3,6.1,1.1,5.1,2,7.4,7.4,6.2,12.5,0,.1,0,.3,0,.4ZM107.6,129.4c-.2,2.2-.8,4.4-1.2,6.6-.2,1.3-.4,2.5-.6,3.8,0,.2,0,.4,0,.5.6,1.7.5,3.6-.8,5.3-1.8,2.5-6,3.6-8.5,1.4-5.6-4.9-1.7-12.8-1-19,.8-7.8,13-6.5,12.1,1.3Z"/>
    <path class="cls-14" d="M163,86.7c-5.3-6.8-12.1-2.9-12.1-2.9,0,0,8.7-27.2-3.2-35.8-8.1-5.9-29.5-6-64.6-5.9-31.5,0-52-1.2-59.1,3.9-7.1,5.1-11.4,11.8-11,20.1.4,8.3,3.9,21.7,3.9,21.7,0,0-6.3-6.3-11.4-3.2-5.1,3.2-3.2,12.6,1.6,26.8,4.7,14.2,4.4,13,4.4,13,0,0-1.7,2.4-1.3,7.1.4,5.4,9.2,36,26.1,41,12.4,3.7,26.6,4.2,49.5,3.4,22.8-.8,37-.3,44.7-2.4,14.1-3.8,29.5-39.1,29.5-42.2s-3.3-5.8-3.3-5.8c0,0,12.1-31.2,6.3-38.8ZM153.8,126.3c4.6,1.9,3.8,7.1.6,12.6-3.4,5.8-13.4,27.3-22.7,31-9,3.7-84.4,3.6-93.2.9-9.6-2.9-19.9-20.7-23.8-31-2.8-7.3-4.4-12.2,1.2-14.9-1.5-3.3-15.7-29.9-9.9-38,4.7-6.6,20.5,17.7,19.8,15.4-1.5-4.9-3.3-9.7-4.9-14.6-1.5-4.4-2.9-8.8-3.6-13.5-.9-5.6-1.5-12.3,1.4-17.5,1.6-2.8,6.4-9.5,13.8-11.2,5.4-1.3,79.4-1.8,86.6-1,6.1.6,15.3,1,21.2,3.2,8.5,3.1,9.6,9.4,10.5,18.2.5,5.4-1.6,12.4-3.6,17.4-1,2.5-2.3,5-3.8,7.4,1.8-.5,3.9-4,8.7-4.8,8.4-1.4,10.3,3.2,8.7,12.8-1.3,8.1-4.6,19.9-6.9,27.7Z"/>
  </g>
  <path class="cls-18" d="M62.7,55.7c-5.5-.5-11.1-.8-16.5-.3,3.2.3,6.4.3,9.5.4,2.3,0,4.7,0,7,0Z"/>
  <g>
    <path class="cls-19" d="M53.2,185s.3-4.6-1.8-7l-2.1-2.4s-4.3-.6-6,.6c-1.7,1.1-3.8,4-7,7.3s-9.9,7.1-8.9,9.7c1,2.6,25.8-8.2,25.8-8.2Z"/>
    <path class="cls-29" d="M46.2,183.9c-1.5,1.8-3.6,2.9-5.7,3.6-2.2.8-4.6,1.3-6.8,1.8-.8.2-1.6.3-2.5.5-.3,0-.6.1-1,.2,0,0-.2,0-.2,0,0,0,.1,0,.2,0,0,0,.2,0,.4,0-.6.1-1.3.2-1.9.2-1.1,1.1-1.7,2.2-1.3,3.1,1,2.6,25.8-8.2,25.8-8.2,0,0,.3-4.6-1.8-7l-2.1-2.4s-.8-.1-1.8-.1c1.2,2.7.6,6.1-1.3,8.4Z"/>
    <path class="cls-4" d="M27.3,192.8s8.1-1.9,14.4-4.2c6.3-2.4,11.3-4.4,11.3-4.4l.5,1.4s-9.7,3.8-13.3,5.2c-3.6,1.3-12.8,3.3-12.8,3.3v-1.3Z"/>
    <path class="cls-29" d="M37.3,182.6c.9.8,2.5,2.9,3.8,2.3-.9-.7-2.7-2.5-3.8-2.6v.3Z"/>
    <path class="cls-29" d="M38.5,181.4c0,.9,2.6,3.1,3.4,2.2-.7-1-2.2-2-3.2-2.6v.5Z"/>
    <path class="cls-29" d="M39.6,180c-.1,1.3,2.5,3,3.6,2.1-1-.7-2.5-1.7-3.3-2.1h-.3Z"/>
  </g>
  <g>
    <path class="cls-19" d="M71,184.8s-.3-4.6,1.8-7l2.1-2.4s4.3-.6,6,.6c1.7,1.1,3.8,4,7,7.3,3.2,3.4,9.9,7.1,8.9,9.7-1,2.6-25.8-8.2-25.8-8.2Z"/>
    <path class="cls-29" d="M78,183.7c1.5,1.8,3.6,2.9,5.7,3.6,2.2.8,4.6,1.3,6.8,1.8.8.2,1.6.3,2.5.5.3,0,.6.1,1,.2,0,0,.2,0,.2,0,0,0-.1,0-.2,0,0,0-.2,0-.4,0,.6.1,1.3.2,1.9.2,1.1,1.1,1.7,2.2,1.3,3.1-1,2.6-25.8-8.2-25.8-8.2,0,0-.3-4.6,1.8-7l2.1-2.4s.8-.1,1.8-.1c-1.2,2.7-.6,6.1,1.3,8.4Z"/>
    <path class="cls-4" d="M96.9,192.6s-8.1-1.9-14.4-4.2-11.3-4.4-11.3-4.4l-.5,1.4s9.7,3.8,13.3,5.2c3.6,1.3,12.9,3.2,12.9,3.2v-1.2Z"/>
    <path class="cls-29" d="M86.9,182.4c-.9.8-2.5,2.9-3.8,2.3.9-.7,2.7-2.5,3.8-2.6v.3Z"/>
    <path class="cls-29" d="M85.7,181.2c0,.9-2.6,3.1-3.4,2.2.7-1,2.2-2,3.2-2.6v.5Z"/>
    <path class="cls-29" d="M84.6,179.8c.1,1.3-2.5,3-3.6,2.1,1-.7,2.5-1.7,3.3-2.1h.3Z"/>
  </g>
  <g>
    <path class="cls-12" d="M113.1,178.5s1-3.5,3.2-4.7l2.2-1.2s3.3.6,4.3,1.9c1,1.3,1.8,3.9,3.4,7.2,1.5,3.3,5.5,7.8,4.1,9.5-1.4,1.6-17.1-12.7-17.1-12.7Z"/>
    <path class="cls-24" d="M118.6,179.5c.6,1.7,2,3.1,3.3,4.2,1.4,1.2,3.1,2.1,4.6,3.1.6.3,1.1.7,1.7,1,.2.1.4.3.7.4,0,0,.1,0,.1,0,0,0,0,0-.1,0,0,0-.2,0-.2-.2.4.3.9.5,1.3.6.5,1.1.7,2.1.2,2.7-1.4,1.6-17.1-12.7-17.1-12.7,0,0,1-3.5,3.2-4.7l2.2-1.2s.6.1,1.4.4c-1.6,1.7-2,4.4-1.2,6.6Z"/>
    <path class="cls-4" d="M130.1,190.9s-5.2-3.4-9.3-6.8c-4.1-3.4-7.3-6.1-7.3-6.1l-.7.9s6.2,5.3,8.6,7.2c2.4,1.9,8.7,5.8,8.7,5.8v-1Z"/>
    <path class="cls-4" d="M125.6,180.8c-.9.3-2.6,1.5-3.4.7.9-.3,2.6-1.1,3.5-1v.3Z"/>
    <path class="cls-4" d="M125,179.6c-.2.7-2.7,1.6-3.1.7.8-.5,2.2-.9,3.1-1.1v.4Z"/>
    <path class="cls-4" d="M124.5,178.3c-.2,1-2.6,1.6-3.2.7.9-.3,2.3-.6,3-.7h.3Z"/>
  </g>
  <g>
    <path class="cls-12" d="M91.7,176.4s1.7-3.2,4.1-4l2.4-.7s3.1,1.3,3.8,2.8.9,4.2,1.7,7.8c.8,3.6,3.7,8.8,2,10.1-1.7,1.3-14-16-14-16Z"/>
    <path class="cls-24" d="M96.8,178.5c.3,1.8,1.3,3.4,2.4,4.8,1.2,1.4,2.5,2.7,3.9,4,.5.4,1,.9,1.4,1.3.2.2.4.4.6.5,0,0,0,0,.1,0,0,0,0,0-.1,0,0,0-.1-.1-.2-.2.4.4.8.7,1.2.9.3,1.2.2,2.2-.4,2.6-1.7,1.3-14-16-14-16,0,0,1.7-3.2,4.1-4l2.4-.7s.6.2,1.3.6c-1.9,1.3-2.9,3.9-2.6,6.2Z"/>
    <path class="cls-4" d="M105.7,192s-4.4-4.5-7.7-8.6c-3.3-4.2-5.9-7.5-5.9-7.5l-.9.8s5,6.5,6.9,8.9c1.9,2.4,7.3,7.5,7.3,7.5l.3-1Z"/>
    <path class="cls-4" d="M103.4,181.2c-.9.1-2.9.9-3.5,0,.9-.1,2.8-.6,3.6-.2v.2Z"/>
    <path class="cls-4" d="M103.1,179.9c-.3.7-3,1-3.2,0,.9-.3,2.3-.5,3.3-.4v.4Z"/>
    <path class="cls-4" d="M102.9,178.5c-.4.9-2.9,1-3.3,0,1-.1,2.4-.1,3,0h.2Z"/>
  </g>
  <path class="cls-13" d="M13.8,80.8c.4-1.9,8-9.9,12.2-13.3s13.3-11.1,18.2-14.1c2.4-1.5,6.5-3.4,11-2.7,10.2,1.6,11.9,1.7,16.5,1,4.3-.7,8.2-2.5,11.2-1.8,3,.8,6.5,2.3,6.5,2.3,0,0,23.9.4,28.1,2.3,4.2,1.9-1.1,8.4-1.1,8.4,0,0-21.6-2.7-27-.8-5.3,1.9-5.5,7.1-6.1,12-.8,5.8-2.1,15-3,22.1-.8,5.5-3.2,9-3.2,9l-26-2.2s0-21.9-.8-37.8c-.1-3.1-9.5,6.5-13.3,8.7-3.8,2.3-13.7,12.5-14.1,11.4-.4-1.1-9.1-4.6-9.1-4.6Z"/>
  <path class="cls-16" d="M107.5,53.5c-8.3-1-14.7,2.3-23,2,.2,4-.5,8.1-1,11.3-1.3,8.2-2.8,16.9-5.8,24.6-3.1,8.1-12.2,15.7-19.3,7.5-2.8-2.1-4.3-6.3-5.1-10-2.9-9.8-2.1-21.5-2.8-31.4-2.8,3.4-6.8,6.1-10,8.5-7.6,5.6-15.1,11.3-23.3,15.9,0,0-.1,0-.2,0,2.5,1.1,5.7,2.6,5.9,3.2.4,1.1,10.3-9.1,14.1-11.4,3.8-2.3,13.2-11.8,13.3-8.7.7,15.9.6,39.4.6,39.4l26.8,1s1.9-3.9,2.6-9.4c1-7.1,2.3-16.2,3-22.1.6-4.9.8-10.1,6.1-12,5.3-1.9,18.4-7.3,18.4-7.3,0,0,2.5-1-.3-1.4Z"/>
  <path class="cls-3" d="M49.5,115.2s4.9,3,7.6,7.2l2.7,4.2,8.6.5s.9-3.9,4-6.5c3-2.7,7.6-4.6,7.6-4.6l-2.3-10.3s-26.6-2.3-26.6-1.1-1.5,10.6-1.5,10.6Z"/>
  <path class="cls-10" d="M70,115.6c-7.9,3-13.5-.5-19.8-4.7-.3,2.3-.7,4.3-.7,4.3,0,0,4.9,3,7.6,7.2l2.7,4.2,8.6.5s.9-3.9,4-6.5c3-2.7,7.6-4.6,7.6-4.6l-1.2-5.5c-2.5,2.3-5.6,4-8.7,5.2Z"/>
  <path class="cls-3" d="M33.5,127.7s3-4.9,7.2-8,8.7-4.6,8.7-4.6c0,0,6.1-1.1,9.5,1.9,3.4,3,2.7,9.1.8,9.5-1.9.4-1.1,1.1-8.7,3.8-6.6,2.3-10.6,3.8-12.5,2.7-1.9-1.1-4.9-5.3-4.9-5.3Z"/>
  <g>
    <path class="cls-27" d="M69.6,57.6c3.3-.8,5-13.8,4.7-13.6-.3.2-2.2,2.7-5.6,3-3.4.3-6.3-.8-6-.1.3.7,3.8,11.5,6.9,10.7Z"/>
    <path class="cls-7" d="M50.7,32.8c0,.1-1.9-.3-3.3-1.2,1.8,6.8,5.4,8.5,5.7,7.4,3.1,5.5,11.8,10.6,15.5,9.6,4.3-1.2,11.3-8.7,11.3-15.4,2.3.9,2.8-7.3,1.4-9.7-.5.9-1.6,1.8-2,2.8.6-11-5-20.9-17.4-19.3-13,1.6-17.4,14.6-11.1,25.9Z"/>
    <path class="cls-27" d="M61.9,6.9c-13,1.6-17.4,14.6-11.1,25.9,0,.1-1.9-.3-3.3-1.2,1.8,6.8,5.4,8.5,5.7,7.4,3.1,5.5,9.4,10.7,15.8,9.7,4.6-.7,10.9-9,11-15.5,2.3.9,3.4-6.6,1.9-8.9-.5.9-1.6,1.6-2,2.6.6-11-5.6-21.5-18-19.9ZM71.7,45.4c-.4,1-1.4,2.4-3.1,2.7-2.3.4-3.2-1.2-3.4-1.2-5.7-.9-13.1-8.9-10.7-14.5.7-1.8,2.4-3.6,4.2-4.2,1.3-.4,2.7,0,3.3,1.3.5,1.1,0,2.8-1.2,3.3.8,1.4,1.9,2.5,3.1,3.7.3,0,.9-.7,1.3-.7-.5-.9-.7-4.1-1.1-6.8-.2-1,.8-1.3,1.2-.4,1.1,2.8,2.2,5.7,2,6.7.2,0,1.6,0,1.6,0,.4-1.4.9-2.7.9-4.2-.3,0-.5-.1-.8-.2-1.3-.4-1.9-2-1.5-3.2.5-1.3,1.9-1.9,3.2-1.5,0,0,.4.1.4.1.1,0,.3,0,.4,0,.5,0,1,.2,1.4.3.9.2,1.7.7,2.4,1.3,6.2,4.5,1.5,15.2-3.8,17.6ZM71.2,19.2c0,.1,0,.2,0,.3.1,1.5-1.3,2.7-2.8,3.2-1.9.6-3.8.6-5.7.9-1.3.2-2.6.7-4,.8-2.5.3-4-.8-3.6-3.1-.4-1.2.3-2.6,1.5-3.5,1.9-1.4,4.4-1.8,6.7-1.8.3,0,.6,0,1,0,3.4-.6,6.9.3,7,3.1Z"/>
    <path class="cls-2" d="M57.3,16.2c.3,1.8,2.1,3.9,3.9,4.4,2.6.8,6.8-.8,8.9,1-.8-1.2-.4-4.2-2.2-4.7,3.4,1.5,4.7,6.1,9.3,5.5.1-1.4-.8-2.8-1.5-3.9.8,1.2,1.9,1.9,2.2,3.4.3,1.4-.4,3.8,1.2,4.4.2-1.7,3.1-5.9,1.2-7.3.7.4,1.6.8,2.4.5,1.7-.6,1.5-2.7,2.7-3.6-1.5-1.6-2.1-1.1-3.8-.2-.5-.9.8-1.6.8-2.6.2-2.4-3.4-3.5-2.9-5.9-.8.2-1.4.6-1.7,1.5-.2.6.5,2.7-.6,2.1-1-.5-1-3.6-1.7-4.6-2.6-3.2-6.5-2.6-10-2.6,0-.1,0-.2,0-.3-.3,1.5,1.1,2.7-.7,2.6-.7,0-1.7-1.1-2.4-1.4-1.8-.7-3.7-.5-5.5,0-2.7.7-5.2,2.3-7.8,3.3.3,1.2.7,2.2,1.8,2.8-1.2,1-2.7,1.7-3.7,2.8-1.4,1.6-2.9,5.4-1.9,7.4.3-.5.7-.6,1.2-.4-2.1,4.3,1.1,11.9,5.7,13.5-.4-.7,0-1,.2-1.8.4-1.7.6-2.7,0-4.4-.5-1.8-2.6-5.7-.2-7,1.2,1,.8,2.1.9,3.5,1.8-1.4,2.5-2.1,2.3-4.3-.1-1.2.2-3.4,1.7-3.7Z"/>
    <path class="cls-22" d="M57.3,16.2c.3,1.8,2.1,3.9,3.9,4.4,2.6.8,6.8-.8,8.9,1-.8-1.2-.4-4.2-2.2-4.7,3.4,1.5,4.7,6.1,9.3,5.5.1-1.4-.8-2.8-1.5-3.9.8,1.2,1.9,1.9,2.2,3.4.3,1.4.2,4.4,1.9,4.9.2-1.7,2.4-6.4.5-7.8.7.4,1.6.8,2.4.5,1.7-.6,1.5-2.7,2.7-3.6-1.5-1.6-2.1-1.1-3.8-.2-.5-.9.8-1.6.8-2.6.2-2.4-3.4-3.5-2.9-5.9-.8.2-1.4.6-1.7,1.5-.2.6.5,2.7-.6,2.1-1-.5-1-3.6-1.7-4.6-2.6-3.2-6.5-2.6-10-2.6,0-.1,0-.2,0-.3-.3,1.5,1.1,2.7-.7,2.6-.7,0-1.7-1.1-2.4-1.4-1.8-.7-3.7-.5-5.5,0-2.7.7-5.2,2.3-7.8,3.3.3,1.2.7,2.2,1.8,2.8-1.2,1-2.7,1.7-3.7,2.8-1.4,1.6-2.9,5.4-1.9,7.4.3-.5.7-.6,1.2-.4-2.1,4.3,1.1,11.9,5.7,13.5-.4-.7,0-1,.2-1.8.4-1.7.6-2.7,0-4.4-.5-1.8-2.6-5.7-.2-7,1.2,1,.8,2.1.9,3.5,1.8-1.4,2.5-2.1,2.3-4.3-.1-1.2.2-3.4,1.7-3.7Z"/>
    <path class="cls-31" d="M55.9,30c1.8,1.6,4.3.3,5.5-1.3-1-1.3-4.5-1.5-5.5,1.3Z"/>
    <path class="cls-31" d="M68.2,27.3c.6.7,1.7,1.1,2.6.9,1.2-.2,1.7-.8,2.4-1.8-1.8-1.6-3.4-1.2-5.2.2v.7Z"/>
    <path class="cls-6" d="M62.7,40s2.4,1.3,4.6.6c2.2-.7,4.4-2.6,4.2-2.5-.2,0-3,.2-4.6.5-1.6.3-4.2,1.4-4.2,1.4Z"/>
    <path class="cls-28" d="M65,39.2s.3.5,2.2,0,2.1-1.1,2.1-1.1c0,0-1.4.2-2.2.4-.8.2-2,.7-2,.7Z"/>
    <path class="cls-23" d="M67,38.2c-2.2.5-4.6,1.8-4.7,1.8,0,0,2.3,1.6,5.1.9,2.8-.7,4.4-2.9,4.4-2.9,0,0-2.6-.3-4.8.2ZM67.2,40.4c-2.3.4-4.4-.3-4.4-.3,0,0,2.8-1,4.2-1.3,1.4-.3,4.3-.6,4.3-.6,0,0-1.9,1.8-4.1,2.2Z"/>
    <path class="cls-27" d="M64.9,41.3s.1,2.3,2.7,1.7c2.5-.6,2-2.9,1.9-2.8,0,0-1.1.7-2.2,1-1.1.3-2.4,0-2.4,0Z"/>
    <path class="cls-33" d="M63.3,36.7h2.6c0,0,1.1-.2,1.1-.2l2.4-1.3h-2c0,0-.3.4-1.2.7-.9.3-1.1-.3-1.3-.1-.2.1-1.6.9-1.6.9Z"/>
    <path class="cls-2" d="M67.9,27.3s1,.4,2.4.3c1.4-.1,3-1.1,3-1.1,0,.1,0,.5,0,.5,0,0-2.2.9-2.9,1.1-1.2.2-2.7-.3-2.7-.3v-.4Z"/>
    <path class="cls-2" d="M56,29.8s1,.4,2.4.3c1.4-.1,3-1.1,3-1.1,0,.1,0,.5,0,.5,0,0-2.2.9-2.9,1.1-1.2.2-2.7-.3-2.7-.3v-.4Z"/>
    <path class="cls-2" d="M48.9,26.9c-.3-1.5-1.4-2.8-1.5-4.6-.1-2.2.7-5,1.8-6.9-.8.2-1.5.8-2.1,1.4,0-3.4,5.8-7.7,8.9-6.6-.8-.5-2-1.3-3-1.4,2.7-2.8,7-2.2,10.1-.7,1,.5,3.2,1.9,4.2.3.3-.5.3-1-.2-1.5.6.2,1.2,0,1.9,0,1.4.2,2.5.8,3.6,1.7,2,1.6,1,5.9,4.1,6.2,0-.4.2-1,.1-1.4,1.6.8,2.2,1.8,2.3,3.6,0,.3-.3.6-.3.9,0,.8.6,1.3.4,2.2-1.2-2.1-3-2.9-5.2-4,0,.8.5,1.6.7,2.2-3.2-.7-6.8-2.9-8.7-5.6.4,1.2-.4,2.5,0,3.7.3,1,1.2,1.9,2.1,2.5-2,0-5.5.7-7.2-.3-2.1-1.2-2-3.8-3.3-5.6-1,1.3-2.8,1.6-3.3,3.3-.4,1.3.9,2.9,0,4.1-.9-1.1-1.4-2.8-2.9-2-1.3.7-1.1,2.3-1.2,3.5,0,1.2-1,3.3-.5,4.2.6,0,1.2,0-.8.6Z"/>
  </g>
  <g>
    <g>
      <path class="cls-28" d="M53.6,28.5l1.2,4.8s8.8-1.2,9.2-1.8c.5-.8-.3-2.2.8-2.4,1.1-.2,1,2.1,2,2.1.9,0,9.2-1.6,9.2-1.6l-.6-4.8-21.8,3.8Z"/>
      <rect class="cls-32" x="55.7" y="28.7" width="7.2" height="3" rx="1.3" ry="1.3" transform="translate(-4 9.6) rotate(-9)"/>
      <rect class="cls-10" x="67.1" y="26.6" width="7.2" height="3" rx=".9" ry=".9" transform="translate(-3.5 11.4) rotate(-9)"/>
    </g>
    <path class="cls-15" d="M53.6,28.5l-3.9,4c.1,0,.2.1.3.2,0,0,0,0,0,0,.4.2.7.4,1.1.6,1.2-1,2.9-2.5,2.9-2.6,0-.1-.4-2.1-.4-2.1Z"/>
  </g>
  <g class="cls-35">
    <path class="cls-8" d="M96.4,45.9c0,1.5-1.2,2.7-2.7,2.7s-2.7-1.2-2.7-2.7,1.2-2.7,2.7-2.7,2.7,1.2,2.7,2.7Z"/>
  </g>
  <g class="cls-35">
    <path class="cls-8" d="M107.4,42.4c0,1.5-1.2,2.7-2.7,2.7s-2.7-1.2-2.7-2.7,1.2-2.7,2.7-2.7,2.7,1.2,2.7,2.7Z"/>
  </g>
  <path class="cls-3" d="M67.7,126.2c0-1.9.2-6,2.7-8.4,2.3-2.2,4.6-4.6,9.5-1.9,4.9,2.7,12.2,8.7,12.2,8.7l-3.4,6.1s-7.2,1.1-12.2,0c-4.9-1.1-8.7-4.6-8.7-4.6Z"/>
  <path class="cls-10" d="M38.9,131.1c-1,.2-1.8.2-2.5,0,0,0,0,0,0,0,.8.8,1.5,1.6,2.2,2,1.9,1.1,5.9-.3,12.5-2.7,7.6-2.7,6.8-3.4,8.7-3.8,1.4-.3,2.1-3.5,1.2-6.4-5.9,5.7-14.6,9.3-22.1,10.9Z"/>
  <path class="cls-10" d="M69.2,120.9c-.2-.1-.4-.3-.6-.4-.8,2.1-1,4.4-1,5.7,0,0,3.8,3.4,8.7,4.6,4.9,1.1,12.2,0,12.2,0l1.5-2.6c-7.3-.9-15-3.5-20.8-7.2Z"/>
  <g>
    <path class="cls-3" d="M52.6,175.5c-.8-7.2-2.3-18.8-3.5-23.1-1.9-6.5-6.1-18.4-7.6-22.4-1.5-4.2-6.8-6.5-8-2.3-.9,3.3,4.1,35.4,6.3,48.8,4.3,0,8.5-1,12.8-1Z"/>
    <path class="cls-10" d="M47,175.9c1.9-.2,3.7-.4,5.6-.4-.8-7.2-2.3-18.8-3.5-23.1-1.9-6.5-6.1-18.4-7.6-22.4,0,0,0-.1,0-.2,0,0-.2.2-.3.3,2.7,10.7,3.1,21.6,4.4,32.6.5,4.4,1.2,8.8,1.5,13.2Z"/>
  </g>
  <g>
    <path class="cls-3" d="M84.8,178c.4,0,.8.2,1.3.2l7.8-49s1.1-3-1.9-4.2c-3-1.1-4.9.4-6.5,4.2-1.5,3.8-6.1,13.3-9.5,26.6-1.9,7.5-2.8,14.6-3.1,19.4,4.1.3,7.9,1.9,11.9,2.8Z"/>
    <path class="cls-10" d="M80.3,176.7c-.5-15.9.6-31.7,6.5-46.6-.2-.7-.5-1.5-.6-2.3-.2.4-.4.8-.6,1.3-1.5,3.8-6.1,13.3-9.5,26.6-1.9,7.5-2.6,14.2-2.9,19,0,0,4.7,1.2,7.1,1.9Z"/>
  </g>
  <path class="cls-13" d="M13.8,80.8s-2.3,2.9-2.4,6.7c-.1,3.7,5.8,11.2,5.8,11.2,0,0,2-2.1,3-3.7s2.2-3.7,2.6-5.6c.4-1.9.5-3.8.5-3.8,0,0-1.9-1.7-4.3-2.7-2.5-1-5.2-1.9-5.2-1.9h0Z"/>
  <path class="cls-16" d="M18.9,82.8c-.4-.2-.9-.4-1.3-.5.7,1,1.3,2,1.8,3,1.3,2.9,1.6,6.3-.3,9-.9,1.2-2.1,1.9-3.5,2.2.9,1.3,1.6,2.1,1.6,2.1,0,0,2-2.1,3-3.7s2.2-3.7,2.6-5.6c.4-1.9.5-3.8.5-3.8,0,0-1.9-1.7-4.3-2.7Z"/>
  <path class="cls-26" d="M93.2,121.6c-1.9-3.2.7-9.9,5.9-10.6,5.4-.7,8.9,2.6,11.6,6.4-.1-3,1.5-7.6,5.9-7.4,5.5.2,10.1,4.3,11.7,9.4,1.2,3.9-.6,5.9-.6,9.4s-1.1,12.3-2,20.3c-.7,5.9-3.5,22.8-3.8,23.4l-3.5-.5s-3.1-18.5-3-23.6c.2-7.1,4.6-17.9,4.6-18.1-.6-1.1-2.5-1.4-5.1-5.4,1.2,3.3,1.4,3.3,1.2,5.3,0,0-3.7,13-7.1,20.9-3.5,8.4-7.1,20-7.1,20l-5-.3s2-14.8,2.4-21.1c.6-10.9,8.2-18.1,8-18.4,0,0-10-2.8-14.1-9.7Z"/>
  <path class="cls-1" d="M109.3,132.9c0-.3,0-.7,0-1,0-.8.2-1.4.6-1.9-6.6-2.4-12.3-7-17.3-12.1-.2,1.4,0,2.8.5,3.8,4.1,6.8,14.1,9.7,14.1,9.7.2.3-7.4,7.5-8,18.4-.3,6.3-2.4,21.1-2.4,21.1l5,.3s1.1-3.7,2.7-8.4c-1.2-10.2,2.6-19.9,4.7-29.8Z"/>
  <path class="cls-1" d="M122.3,138.6c0-3.4.1-6.7.7-9.9-6.8-3.9-12.5-9.6-17-16-1.5-1-3.3-1.7-5.4-1.7,4.2,4.7,13.5,13.2,15.9,16.1,1.6,2,3.2,2.5,3.6,3.4,0,.2-4.4,11-4.6,18.1-.1,5.1,3,23.6,3,23.6l3.5.5c.1-.3.8-4.3,1.6-9-3.8-7.8-2.3-16.4-1.2-24.9Z"/>
  <path class="cls-26" d="M93.8,116s1.5-6.1,2.8-8.6c1.3-2.5,1.3-3.6,1.3-3.6l19.3-1.7s1.8,3.3,3.3,6.4l1.5,3.1s-3.5,7.6-10.9,8.3-17.4-4-17.4-4Z"/>
  <path class="cls-26" d="M93.8,116s1.5-6.1,2.8-8.6c1.3-2.5,1.3-3.6,1.3-3.6l19.3-1.7s1.8,3.3,3.3,6.4l1.5,3.1s-3.5,7.6-10.9,8.3-17.4-4-17.4-4Z"/>
  <path class="cls-21" d="M98,170.8c0,.5-.4,1.4-.4,2.2,0,1,.7,2.1,1.6,2.7.5.3,2.3,1,2.7.3.3-.4-.2-1.9-.2-2.4,0-.8-.1-1.7-.2-2.5-1.1,0-2.3,0-3.4-.2Z"/>
  <path class="cls-21" d="M119.1,175c.5.7,1.7,1.1,2.5.6.9-.5.4-2.5,0-3.1l-3.2-.5s0,2.1.6,2.9Z"/>
  <g>
    <path class="cls-10" d="M139.7,77.1c-2.3-4.2-6.1-8-11-12.9-4.9-4.9-16-9.1-16-9.1,0,0-1.8,6.7-7.1,8.1-7.2,1.9-11.6-4.7-11.6-4.7l-6.9,4.6.3,1c-.2-.2-.3-.3-.3-.3l-7.9,23.6c-1.4,12.5,4.3,17.3,4.3,17.3,0,0,6.3-7.8,8.1-13.7.7-2.2,1-4.6,1.2-6.7l5.3,19.7,19.7-2.3c.2-.5,3.7-31.2,3.7-31.2,0,0,12.2,12.9,13.3,13.7,0,0,.1.1,0,.2,2.7,1.1,5.5,1.8,8,3.5.1-.2.2-.3.2-.3,0,0-1.1-6.5-3.4-10.6Z"/>
    <path class="cls-25" d="M142.3,84.2c-.3,0-.6-.2-.9-.4-7.6-5.3-16.6-9.7-22.5-16.8.4,2.4.5,4.8,0,7.1-1.4,5.4-6.7,7-11.2,5-3.3,2.2-7.6,2.5-11-.1-1-.7-1.8-1.6-2.5-2.6-1.4,5.8-4,11.6-5.8,16.2,0,.1-.1.2-.2.4,0,.2.2.4.2.6,0,0,0,.2,0,.3.6,2.5-2.3,4.5-4.5,3.6-5.7-2.3-2-14.1-1.3-18.4.2-1.3.4-2.6.6-3.9l-4.1,12.3c-1.4,12.5,4.3,17.3,4.3,17.3,0,0,6.3-7.8,8.1-13.7.7-2.2,1-4.6,1.2-6.7l5.3,19.7,19.7-2.3c.2-.5,3.7-31.2,3.7-31.2,0,0,12.2,12.9,13.3,13.7,0,0,.1.1,0,.2,2.7,1.1,5.5,1.8,8,3.5.1-.2.2-.3.2-.3,0,0-.3-1.5-.8-3.6Z"/>
    <path class="cls-3" d="M83.5,104.5s-5.7-6.1-3.4-11c2.3-4.9,17.1-20.1,17.1-20.1l3.4,3s-6.5,16.7-9.5,21.3c-3,4.6-7.6,6.8-7.6,6.8Z"/>
    <path class="cls-10" d="M99.4,75.2c-1.1,3.8-3.3,7.5-5.2,11.1-1.7,3.1-3.1,6.5-5.2,9.3-1.7,2.3-4.5,4.4-7.3,2.3-1.5-1.1-1.8-2.8-1.6-4.4,0,0,0,.1,0,.2-2.3,4.9,3.4,11,3.4,11,0,0,4.6-2.3,7.6-6.8,3-4.6,9.6-21.4,9.6-21.4l-1.1-1.1Z"/>
    <path class="cls-13" d="M109,73.2c-.5-.1-1,.5-.9,1.1.1.9,1.1.6,1.8.5,0,.7-.3,1.5.5,1.9.7.3,1.8,0,1.9-.8,0,1.2,1.3,1.8,2.3,1.6.9-.1,2.1-1.6,1.2-2.4,1.7,2.4,4.7-3.4,1-2.4,1.3-.5,0-2.6-.4-1.8-.6-1.5-2.8-1.3-2.7.5-1.2-.9-3.2-1-3.2,1-1-1-2.8.1-1.8,1.4,0-.2,0-.2.4-.4Z"/>
    <path class="cls-16" d="M116.8,74c-.4-.5-.3-1.2,0-1.7,0,0,0-.2,0-.3,0,0,0,0,0,0-.3.3-.7.4-1.1.3.2.2.4.5.6.7.2.5,0,1-.6,1.1-.2,0-.4,0-.7,0,.2.9-.3,1.9-1.3,1.8-.5,0-.8-.3-1.1-.6-.2.2-.4.3-.6.4,0,0-.2,0-.3,0,0,0,0,0,0,0-.1,0-.3,0-.4,0-.3,0-.5-.2-.6-.4-.5-.4-.4-1.2,0-1.7-.4.1-.9.1-1.3,0-.3-.2-.6-.4-.8-.7,0,.1,0,.3.1.4-.2.2-.4.6-.4,1,.1.9,1.1.6,1.8.5,0,.7-.3,1.5.5,1.9.7.3,1.8,0,1.9-.8,0,1.2,1.3,1.8,2.3,1.6.2,0,.3,0,.5-.2-.1-.2-.2-.4-.2-.6,0-.5,0-1.1.5-1.4.2,0,.4,0,.6,0,0,0,0-.1-.1-.2,0,0,.1.1.2.2.1,0,.2.1.3.3.8.4,1.7-.3,2.1-1.2-.5.3-1.2.2-1.6-.3Z"/>
    <path class="cls-17" d="M100.4,71c.2-.2,4.7-3.3,6.1-4.3,1.4-1,4.1-2.5,4.1-2.5,0,0,3.6,1.1,4.6,1.9,1.1.8,1.5,3.3,1.5,3.9-.1,1.8-1.2.7-1.2.7,0,0,.1,1.6-.4,2-.6.4-1.5-.3-1.5-.3,0,0,0,1.2-.4,1.7-.5.5-.6.4-1.1.2-.8-.3-.1-1.9-.1-1.9,0,0-1.5,0-1.8-.4-.6.5-1.6-.2-1.6-.2,0,0-.6.8-2.2,1.6-1.7.8-4.4.6-4.4.6,0,0-.7,2.2-.9,2-.2-.1-3.2-2.7-3.2-2.7l2.8-2.5Z"/>
    <path class="cls-5" d="M116.2,70.4c-.5-.2-.6-.9-.8-1.3-.2-.5-.4-1.2-.7-1.6-.4-.5-1.1-.8-1.7-1.2-.7-.2-1.3-.6-1.6-1.3-.1-.2,0-.4,0-.6-.5-.2-.8-.3-.8-.3,0,0-2.7,1.5-4.1,2.5-1.4,1-5.9,4.1-6.1,4.3l-2.8,2.5s2.9,2.6,3.1,2.8c.2.1.9-1.9,1-2.1,0,0,0,0,0-.1.3-1.6,2-2.3,3.4-2.5,1.1-.1,2.4-.3,3.3.3,0,0,0,0,0,0,0,0,1,.7,1.6.2.4.5,1.8.4,1.8.4,0,0-.7,1.6.1,1.9.1,0,.2,0,.3,0-.3-.6.1-1.8,0-2.5-.8-.5-1.4-.5-2.2-1-.8-.5-.2-1.8-.2-1.8.5.3,1.5.9,2,1.2.4.3,1,.5,1.3.9.3.4.2.9.2,1.3.1,0,.4.2.6.2,0-.8-.2-2-.7-2.6-.4-.6-1.1-.9-1.7-1.2-.9-.5-.2-1.9-.2-1.9.8.5,2.6,1.5,3.1,2.3.4.6.6,1.4.7,2.2,0-.5,0-.9,0-.9,0,0,.9.9,1.2-.5,0,0-.4.2-.5.2Z"/>
  </g>
  <g>
    <g>
      <g>
        <path class="cls-17" d="M104.9,62.3c2.7-1.2,2.5-12.7,2.3-12.5s-1.5,2.7-4.5,3.4c-3,.8-5.4.3-5.4.3.3.6,5,10,7.6,8.9Z"/>
        <path class="cls-17" d="M85,43.1c0,.1-1.7,0-3-.6,2.5,5.7,5.8,6.7,6,5.7,3.4,4.4,13.5,6.3,15,6,2.2-1.7,8.5-8.8,7.6-14.6,2.1.4,1.5-6.8-.1-8.6-.3.9-1.2,1.8-1.4,2.7-.9-9.7-7.2-17.5-17.8-14.5-11.1,3.2-13.2,15.1-6.2,24.1Z"/>
        <path class="cls-20" d="M91.3,19.1c-11.1,3.2-13.2,15.1-6.2,24.1,0,.1-1.7,0-3-.6,2.5,5.7,5.8,6.7,6,5.7,2.3,2.7,7.6,5.7,14.9,6.1,2.9-2.4,8.2-8.5,7.7-14.7,2.1.4,1.5-6.8-.1-8.6-.3.9-1.2,1.8-1.4,2.7-.9-9.7-7.2-17.5-17.8-14.5ZM104.9,51.2c-.2.9-.4,2-2,2.6-1.9.7-3.4-.6-3.5-.6-5.1,0-12.4-5.7-11.1-10.9.4-1.6,1.6-3.5,3.1-4.2,1.1-.5,2.4-.4,3.1.7.6.9.4,2.4-.6,3,.9,1.1,2,1.9,3.2,2.8.3,0,.7-.7,1-.8-.6-.7-1.1-3.5-1.9-5.8-.3-.8.5-1.3,1-.5,1.3,2.3,2.7,4.7,2.7,5.6.2,0,1.4-.2,1.4-.2.1-1.3.4-2.5.2-3.8-.2,0-.5,0-.7,0-1.2-.2-2-1.5-1.7-2.6.2-1.2,1.4-1.9,2.6-1.7,0,0,.3,0,.4,0,.1,0,.3,0,.4,0,.4,0,.9,0,1.3,0,.8,0,1.6.4,2.3.8,6,3.1,3.2,12.9-1.1,15.7ZM101,28.6c0,.1,0,.2,0,.3.3,1.3-.8,2.6-2,3.1-1.6.7-3.3,1-4.9,1.5-1.1.4-2.2,1-3.4,1.3-2.2.6-3.6-.2-3.5-2.2-.5-1,0-2.3.8-3.2,1.5-1.4,3.6-2.2,5.6-2.5.3,0,.5,0,.8,0,2.9-.9,6-.7,6.5,1.8Z"/>
        <path class="cls-31" d="M89.2,40.1c1.8,1.2,3.8-.3,4.6-1.8-1.1-1-4.2-.7-4.6,1.8Z"/>
        <path class="cls-31" d="M99.6,36c.6.5,1.6.7,2.4.4,1-.4,1.4-.9,1.9-1.9-1.8-1.2-3.1-.6-4.5.8l.2.6Z"/>
        <path class="cls-6" d="M97.4,47.7s1.3,1,3.1,0c1.8-.9,2.4-2.3,2.2-2.2-.1,0-1.5,0-2.8.5-1.4.5-2.5,1.7-2.5,1.7Z"/>
        <path class="cls-28" d="M98.4,46.8s.3.4,1.9-.3c1.6-.7,1.7-1.2,1.7-1.2,0,0-1.2.4-1.9.6-.7.2-1.7.9-1.7.9Z"/>
        <path class="cls-23" d="M99.8,45.5c-.4.2-.6-.2-.8,0-1.3.8-1.9,2.3-1.9,2.3.4.2,1.8,1.5,4,.7,2.2-.9,2.1-3.1,2.1-3.1,0,0-1.3-.6-2.8-.4-.3,0-.1.4-.6.5ZM100.7,47.5c-1.9.8-3.1.1-3.1.1,0,0,.5-.6,1.4-1,.3-.1.9-.2,1.2-.3.4-.2.7-.5,1.1-.6.8-.2,1.4-.1,1.4-.1,0,0-.2,1.2-2,1.9Z"/>
        <path class="cls-27" d="M98.8,49.1s.5,2,2.7,1.2c2.2-.8,1.3-2.6,1.2-2.6s-.9.7-1.8,1.1c-.9.3-2.1.3-2.1.3Z"/>
        <path class="cls-33" d="M97.1,44.4h1.9s1-.4,1-.4l1.3-1.3h-1.2c0,0-.2.5-.9.9s-1,0-1.1,0c-.1.1-.9.7-.9.7Z"/>
        <path class="cls-2" d="M99.3,36s1,.2,2.1,0c1.2-.3,2.5-1.3,2.5-1.3,0,.1.1.4.1.4,0,0-1.8,1.1-2.4,1.3-1,.4-2.4,0-2.4,0v-.4Z"/>
        <path class="cls-2" d="M89.2,39.8s1,.2,2.1,0c1.2-.3,2.5-1.3,2.5-1.3,0,.1.1.4.1.4,0,0-1.8,1.1-2.4,1.3-1,.4-2.4,0-2.4,0v-.4Z"/>
      </g>
      <path class="cls-17" d="M107.1,55.7s0,0,0,0c.3-3.1.2-6.1,0-6-.2.2-1.9,2.8-4.4,4.4-3.4-.2-5.6-.9-5.6-.9.1.2,1.1,2.1,2.3,4-.4-.3-5,1.4-5.4,1.4,0,0,4.5,6.8,10.9,5.5,6.2-1.3,7.6-8.9,7.6-8.9l-5.5.4Z"/>
      <path class="cls-21" d="M107.6,59.4c.9.3,1.7.7,2.5,1.3,1.9-2.5,2.5-5.5,2.5-5.5l-5.5.4s0,0,0,0c.3-3.1.2-6.1,0-6-.1,0-.7,1-1.6,2,.7,2.3,1.5,4.7,2,7.1,0,.2,0,.4,0,.6Z"/>
      <path class="cls-21" d="M99.6,62.1c.5-.6,1-1.1,1.5-1.5,0-.2-.2-.5-.2-.7-.5-2.1-1.1-4.1-1.8-6.2-1.2-.2-2-.4-2-.4.1.2,1.1,2.1,2.3,4-.4-.3-5,1.4-5.4,1.4,0,0,1.9,2.9,5,4.6,0-.4.3-.8.5-1.2Z"/>
    </g>
    <g>
      <path class="cls-22" d="M114.9,33.5c-2.8-5.4-8.3-12.1-11.9-14.3-3.3-2.1-13.8-4.6-14.8,1-2.1.3-3,.2-4.9,1.6-2,1.6-4.6,4.9-4.7,7.5-.4,6.2.2,15,2.5,18.6,1.7,2.6,4.4,4.3,7.5,4.8.8.1,4,.3,3.7-1-2.5-.8-4.8-5.5-5.2-7.6-.4-2.2-1.2-4.2-1-6.2.6-5.1,1.8-5.5,2.6-8.2-.7,2.2-1.7,5.6-.6,7.6,5-2.8,4.1-5.7,5.4-7.9-.2,1.2-.1,2.6-.1,3.8,1.4-.4,4.2-2.3,5.2-4.5.6-1.2,1.5-2.6-.3-4.8,1.1.6,1.7,1.4,2.4,2.3,1,1.3.3,1.2,1,2.6,1.3,2.4,4.6,2.2,6.3,3.8,1.1,2.2,2.1,4.6,2.3,6.9.3,2.3-.8,6.9-2.9,9.7,2.7.2,6.7-3,7.8-5.5,1.7-4,.9-7.4-.6-10.2Z"/>
      <path class="cls-9" d="M87.1,44.1c-.4-2.2-1.2-4.2-1-6.2.3-2.9.9-4.2,1.4-5.4.7-1.5,1.3-2.4,1.7-3.8-.8.2-2.6.8-3.3,1.9-1.1,1.8-1,4.6-1,6.1,0,4.2,1.5,9.7-1.3,13.9,1.4,1.1,3.1,1.8,4.9,2.1.8.1,4,.3,3.7-1-2.5-.8-4.8-5.5-5.2-7.6Z"/>
      <path class="cls-9" d="M114.9,33.5c-6.2-2.1-13.6-7.5-18.4-11.7,0,0,0,.1-.1.2.7,2.8.4,5.8-.4,8.5-.4,1.3-1.8,1.2-2.5.4,0,.8,0,1.5,0,2.3,1.4-.4,4.6-1.7,5.6-3.9.6-1.2,1.1-3.2-.7-5.4.7,1.3,1.3,3.6,2.9,5.3,1.9,2,5.1,1.8,6.9,3.4,1.1,2.2,2.1,4.6,2.3,6.9.3,2.3-.9,6.8-3,9.6,2.7.2,6.9-2.9,7.9-5.4,1.7-3.9.9-7.4-.6-10.1Z"/>
    </g>
  </g>
  <g>
    <g>
      <path class="cls-28" d="M85.8,39.3l1.9,4.5s8.5-2.5,8.8-3.2c.4-.9-.6-2.1.4-2.5s1.3,1.9,2.3,1.7,8.9-2.9,8.9-2.9l-1.3-4.7-21,7Z"/>
      <rect class="cls-32" x="88" y="38.6" width="7.2" height="3" rx="1.3" ry="1.3" transform="translate(-7.9 29.8) rotate(-17.7)"/>
      <rect class="cls-10" x="99" y="34.8" width="7.2" height="3" rx=".9" ry=".9" transform="translate(-6.2 33) rotate(-17.7)"/>
    </g>
    <path class="cls-15" d="M85.8,39.3l-3.3,4.5c.1,0,.2,0,.3.1h0c.4.2.8.3,1.2.4,1-1.2,2.5-2.9,2.5-3,0-.1-.8-2-.8-2Z"/>
  </g>
  <path class="cls-9" d="M93.5,26.7c-.5.4-2.5,2.5-3.3,7.6-.2,1.3-1.7,1.6-2.5,1,0,.8.2,1.5.5,2.1,3.9-2.1,5-4.8,5.3-6.5.2-.9.4-2.7,0-4.2Z"/>
  <g>
    <path class="cls-32" d="M110.4,79.1s1.8-3.5,4.2-3.4c2.3.1,3,3.4,3,3.4l-.3,33.2-6.4.2-.5-33.4Z"/>
    <path class="cls-28" d="M126.4,80.4s0-4.6-3-4.6-5.7,3.8-5.7,3.8l-.4,32.7,8.7.4.4-32.3Z"/>
    <path class="cls-32" d="M134.4,80.8c-.4-1.1-.8-3.4-3-3.4s-4.9,3-4.9,3l-.4,32.3,4.9,1.1,3.4-33Z"/>
    <path class="cls-15" d="M106.9,79s.3-4.9,1.9-3.5,1.6,3.8,1.6,3.8l.6,33.2-2.9-.8c0-.4-1.1-32.7-1.1-32.7Z"/>
    <path class="cls-32" d="M104.9,111c.4,0,3.2.8,3.2.8l-1.1-32.7s-.3-3.2-1.9-3.3c-1.6-.1-1.3,3.3-1.3,3.3l1.1,32Z"/>
    <path class="cls-15" d="M102.1,110.5l2.8.5-1.1-33.1s-.6-2.3-1.6-1.6c-1,.6-1,3.3-1,3.3l1,31Z"/>
  </g>
  <g>
    <path class="cls-17" d="M119.5,99.8s-4-.9-5.2-.4c-.6.3-.6.5-2.2,1.2-.6.2-2.2.5-2.2.5,0,0,0,1.3,1.5,1.1.9-.1,2.7-.6,2.7-.6,0,0-1.3,1.5-2.7,2-1.5.6-2.4.4-2.4.4,0,0-.6-1.4-1.5-1.1-.9.3-1,2.4-.5,3.3.5.9,2.1,2.2,2.1,2.2,0,0,4.3.3,5.9-.3,1.6-.6,6-5.5,6-5.5l-1.5-2.8Z"/>
    <path class="cls-30" d="M108.7,107.7c0-.3.3-.5.4-.7,0,0-1.2-.4-.3-1.4-.1-.1-.6-.6-.8-.8-.8-.8-.5-1.3-.9-1.8-.6.6-.6,2.3-.2,3.1.4.8,1.8,1.9,2.1,2.2,0-.1-.2-.1-.3-.6Z"/>
    <path class="cls-30" d="M115.9,101.4c-.2,1.3-1.7,2.4-2.5,3.2-.2.2-.5.4-.8.5,0,0,0,0,.1,0,.8.1.9,1,.5,1.5,0,0,0,0,0,0,.9.2.9,1.5.1,1.7,0,0,0,0,0,0,.6,0,1.2-.2,1.6-.3,1.6-.6,6-5.5,6-5.5l-.7-1.3c-.4.1-4,.2-4.4.2Z"/>
    <path class="cls-3" d="M119.4,99.7l1.5,2.8s5.8-1.3,9.6-3c3.8-1.8,7.4-2.3,9.4-5.3,2-3,2.8-5.8,2.8-5.8,0,0-5.1-4.9-8.3-3.2-3.2,1.7-15.1,14.6-15.1,14.6Z"/>
    <path class="cls-10" d="M139.8,86c.3,2.2-.6,4.9-2.3,6.7-4.6,4.7-11,6.6-16.9,9l.5.8s5.8-1.3,9.6-3c3.8-1.8,7.4-2.3,9.4-5.3,2-3,2.8-5.8,2.8-5.8,0,0-1.3-1.3-3.1-2.3Z"/>
  </g>
  <g>
    <path class="cls-13" d="M111.9,47.6c.3,0,10.7,4.4,14.4,6.8,3.7,2.4,6.8,4.8,6.8,4.8l-1.2,2s-8-.7-13.3-2.3c-4.9-1.5-11.8-3.3-11.6-3.7.1-.2.2-2.2,0-5.5.3,0,.3-.5.5-.6,2.2,0,4.2-1.5,4.2-1.5Z"/>
    <path class="cls-7" d="M132.2,70.3c.3-1.7-1-2.2-1.2-3.7,0-.7.2-3.8.4-4.3,0-.4,1.5-2.6,1.7-3,0,0,5.3,6.7,6.1,7.4,0,0,0,1.3-.2,3.3-.2,2-.9,3.8-2.5,5.3-1.6,1.6-2,.7-2-1,0-2.2.9-4.5-.2-6.6-.3.8,0,2.4-.7,3-.5.4-.8.9-1.5-.3Z"/>
    <path class="cls-27" d="M138.4,72.7c0,0-.2,0-.3-.1-.4.2-1,0-1.2-.4-.3.6-1.4.4-1.4-.4,0-.9,0-1.7.2-2.6,0-.4.2-.9.3-1.3-.9-1-1.4-2.3-2-3.5-.8-1.6-1.1-2.9-1.2-4.5-.5.8-1.3,2.2-1.4,2.5-.1.5-.4,3.6-.4,4.3.2,1.6,1.5,2,1.2,3.7.6,1.1,1,.9,1.4.5,0,0-.7,0-.8-.8,0-.1.3-.6-.2-1.5-.2-.3-.7-1.1-.8-1.4-.2-.6,1.2-.9,1.3-.9.9,0,1.3.9,1.4,1.8.9,2,.1,4.2,0,6.4,0,1.7.3,2.6,2,1,.8-.8,1.4-1.6,1.8-2.6Z"/>
    <path class="cls-16" d="M107.1,51.4c0,2.1,0,4.3,0,4.3,0,0,6.7,1.8,11.6,3.3,5.3,1.6,12.9,2.4,12.9,2.4l.7-1.1c-7.7-1.6-22-8.8-25.2-8.9Z"/>
  </g>
  <path class="cls-15" d="M106.8,32.3s.5,2.5.7,2.5c.2,0,4.5.6,4.5.6l-.6-1.4-4.6-1.7Z"/>
  <polygon class="cls-15" points="75.5 24.8 75.8 27.5 78.9 28 79.5 26.4 75.5 24.8"/>
  <path class="cls-28" d="M23.1,86s18.7-4.2,18.8-4.5l4.4,40.1s-1.1,1.7-3.9,2.4c-2.8.7-5.4,0-5.4,0l-13.9-38Z"/>
  <path class="cls-3" d="M43.6,113.9c-7.3-8.9-12.7-17.4-16.5-28.2,0-.2-.1-.3-.2-.5-2.2.5-3.8.9-3.8.9l13.9,38s2.6.6,5.4,0c2.8-.7,3.9-2.4,3.9-2.4l-.6-5.6c-.7-.6-1.5-1.3-2.1-2.1Z"/>
  <polygon class="cls-34" points="37.6 83.1 44.6 123 45.4 122.6 39.8 82.4 37.6 83.1"/>
  <polygon class="cls-34" points="34 83.7 42.9 123.9 41.7 124.2 31.4 84.3 34 83.7"/>
  <polygon class="cls-34" points="27.4 84.9 39.8 124.3 38.7 124.3 25.3 85.4 27.4 84.9"/>
  <polygon class="cls-28" points="42.2 82.1 23.3 86.9 22.9 85.9 42.2 81.3 42.2 82.1"/>
  <polygon class="cls-28" points="31.5 76.5 32.4 76.2 32.6 83.5 32 83.7 31.5 76.5"/>
  <g>
    <path class="cls-7" d="M42.7,99.1c-.5-1.5-4.6,0-5.8,0,1.2-.3,6.6-1.5,5.8-3.4-.6-1.8-4.6-.3-5.8-.2,1.1-.7,3.6-.9,4-2.2.9-3.3-5.4-.5-6.4-.2-4.3,1.2-9.9-.4-11.3-1.5-.8,1.2-2.4,2.4-3,3.4-.5.8-1,1.8-1.6,2.5-.4.4-1.1.7-1.4,1.2,1.3,1.1,3.3,1.8,4.8,2.5,2.1,1.1,1.8,1.2,4,2.1,2.1.8,6.8,1.4,9.1,1,.5-.1,6.6-.8,6.3-2.4-.1-.5-.6-.7-1.3-.8,1.6-.2,3-.7,2.6-1.9ZM36.7,101.4c0,0,.2,0,.2,0-.1,0-.2,0-.2,0Z"/>
    <path class="cls-27" d="M40.1,93.4c-4.3.5-9.5,3-13.7.8-.8-.4-1.8-3.6-2-4.3,0,0-3.6,4-4.2,5-.5.8-2.7,3.2-3,3.7,1.3,1.1,3.3,1.8,4.8,2.5,2.1,1.1,1.8,1.2,4,2.1,1.5.6,4.1,1,6.4,1.1-.8-.9-1.3-1.7-.6-2.9.5-.9.6-1.9-.2-2.4-.6-.6-.2-2.2.6-2.5,2.3-.8,4-.8,7-2,.8-.3,1.5-.7,1.7-1.4,0-.1,0-.2,0-.3-.2.2-.5.4-.8.4Z"/>
  </g>
</svg>